<svg width="11" height="15" viewBox="0 0 11 15" fill="none" xmlns="http://www.w3.org/2000/svg">
<path d="M10.5 4.08594C10.5 3.94922 10.3906 3.73047 10.2812 3.62109L7.62891 0.96875C7.49219 0.832031 7.32812 0.75 7.16406 0.75H7V4.25H10.5V4.08594ZM6.78125 5.125C6.39844 5.125 6.125 4.85156 6.125 4.46875V0.75H0.65625C0.273438 0.75 0 1.05078 0 1.40625V14.0938C0 14.4766 0.273438 14.75 0.65625 14.75H9.84375C10.1992 14.75 10.5 14.4766 10.5 14.0938V5.125H6.78125ZM3.36328 11.7148C3.33594 11.7422 3.28125 11.7695 3.25391 11.7695C3.22656 11.7695 3.17188 11.7422 3.14453 11.7148L1.36719 10.0469C1.33984 10.0469 1.33984 9.99219 1.33984 9.9375C1.33984 9.91016 1.33984 9.85547 1.36719 9.85547L3.14453 8.1875C3.17188 8.16016 3.22656 8.13281 3.25391 8.13281C3.28125 8.13281 3.33594 8.16016 3.36328 8.1875L3.88281 8.76172C3.91016 8.78906 3.9375 8.81641 3.9375 8.87109C3.9375 8.89844 3.91016 8.95312 3.88281 8.98047L2.76172 9.9375L3.88281 10.9219C3.91016 10.9492 3.9375 11.0039 3.9375 11.0312C3.9375 11.0859 3.91016 11.1133 3.88281 11.1406L3.36328 11.7148ZM4.75781 13.082L4.01953 12.8906C3.9375 12.8633 3.91016 12.8086 3.91016 12.7266V12.6992L5.57812 6.90234C5.60547 6.84766 5.66016 6.79297 5.71484 6.79297C5.74219 6.79297 5.76953 6.79297 5.76953 6.82031L6.50781 7.01172C6.58984 7.03906 6.61719 7.09375 6.61719 7.17578V7.20312L4.94922 13C4.92188 13.0547 4.86719 13.1094 4.8125 13.1094C4.78516 13.1094 4.75781 13.1094 4.75781 13.082ZM9.16016 10.0469L7.38281 11.7148C7.35547 11.7422 7.30078 11.7695 7.27344 11.7695C7.24609 11.7695 7.19141 11.7422 7.16406 11.7148L6.64453 11.1406C6.61719 11.1133 6.58984 11.0859 6.58984 11.0312C6.58984 11.0039 6.61719 10.9492 6.64453 10.9219L7.76562 9.9375L6.64453 8.98047C6.61719 8.95312 6.58984 8.89844 6.58984 8.87109C6.58984 8.81641 6.61719 8.78906 6.64453 8.76172L7.16406 8.1875C7.19141 8.16016 7.24609 8.13281 7.27344 8.13281C7.30078 8.13281 7.35547 8.16016 7.38281 8.1875L9.16016 9.85547C9.1875 9.85547 9.21484 9.91016 9.21484 9.9375C9.21484 9.99219 9.1875 10.0469 9.16016 10.0469Z" fill="#B8BEC3"/>
</svg>
